<svg width="200" height="26" viewBox="0 0 200 26" fill="none" xmlns="http://www.w3.org/2000/svg">
<g opacity="0.8">
<path d="M18.3126 22.904C18.5059 23.1089 18.4657 23.4395 18.2221 23.5811C16.433 24.6211 14.3552 25.2192 12.1367 25.2192C10.8072 25.2192 9.52843 25.0035 8.33147 24.608C8.06817 24.521 7.95882 24.2132 8.09747 23.9731L11.221 18.5627C11.3109 18.407 11.4847 18.3215 11.6641 18.3332C11.7752 18.3404 11.8872 18.3442 12 18.3442C12.5065 18.3442 12.9962 18.2723 13.4604 18.1402C13.6304 18.0918 13.8152 18.1358 13.9364 18.2644L18.3126 22.904ZM7.18946 16.0112C7.38264 15.9495 7.59165 16.0259 7.71272 16.1886C8.12878 16.7476 8.65101 17.2229 9.2502 17.5835C9.47421 17.7184 9.56445 18.0068 9.43372 18.2332L6.49336 23.3259C6.37071 23.5383 6.10001 23.6141 5.88982 23.4877C3.8949 22.2875 2.2744 20.5304 1.24189 18.4309C1.12385 18.1908 1.2525 17.9061 1.50732 17.8248L7.18946 16.0112ZM23.8219 13.0972C24.0707 13.0972 24.2731 13.2993 24.2637 13.5478C24.1382 16.8765 22.67 19.8597 20.3873 21.9777C20.2107 22.1416 19.9361 22.127 19.7707 21.9518L15.6323 17.5652C15.4507 17.3726 15.475 17.0667 15.6675 16.8849C16.5769 16.0264 17.1853 14.853 17.3169 13.5384C17.3413 13.2942 17.5394 13.0972 17.7848 13.0972H23.8219ZM6.2985 12.6294C6.49939 12.6294 6.65625 12.7996 6.65625 13.0005C6.65626 13.3121 6.68268 13.6175 6.7337 13.9146C6.77404 14.1495 6.64493 14.3862 6.41788 14.4586L0.895499 16.221C0.652719 16.2985 0.393291 16.1592 0.333952 15.9114C0.116696 15.004 3.3177e-05 14.0574 0 13.0835C0 13.0767 6.53478e-06 13.0699 1.95187e-05 13.063C0.000480433 12.8209 0.200448 12.6294 0.442539 12.6294H6.2985ZM7.4461 9.51412C7.60717 9.67231 7.62427 9.92429 7.50212 10.1141C7.39246 10.2846 7.29219 10.4617 7.20212 10.6446C7.12235 10.8067 6.9608 10.9155 6.78017 10.9155H0.731773C0.451277 10.9155 0.238666 10.6614 0.300759 10.3879C0.71435 8.5659 1.53935 6.90084 2.6709 5.4923C2.83326 5.2902 3.13371 5.27886 3.31867 5.46052L7.4461 9.51412ZM12.1367 0.946777C13.0353 0.946808 13.9104 1.04702 14.7529 1.23354C14.9858 1.28508 15.1299 1.51533 15.0838 1.74929L13.9548 7.46884C13.9011 7.74057 13.6171 7.89844 13.349 7.82868C12.9181 7.71653 12.466 7.65674 12 7.65674C11.0055 7.6568 10.0744 7.92813 9.27691 8.40126C9.09125 8.51142 8.8525 8.49267 8.69848 8.34139L4.53821 4.25516C4.3508 4.07109 4.35981 3.76567 4.56496 3.60159C6.64078 1.94134 9.27203 0.946777 12.1367 0.946777Z" fill="#2658AB"/>
<path d="M38.016 11.7279H46.56V21.6399H43.68L43.392 19.5519C42.216 21.0399 40.368 21.8799 37.992 21.8799C33.384 21.8799 30 18.6399 30 13.3359C30 7.88787 33.408 4.11987 38.592 4.11987C42.72 4.11987 45.72 6.37587 46.464 9.92787H42.648C41.976 8.07987 40.392 7.26387 38.544 7.26387C35.544 7.26387 33.576 9.42387 33.576 13.0239C33.576 16.5999 35.52 18.7599 38.448 18.7599C40.392 18.7599 42.96 17.7279 43.128 14.7999L43.344 14.8239V14.5359H38.016V11.7279Z" fill="white"/>
<path d="M52.4929 18.6159H61.1329V21.6399H49.0609V4.35987H60.8449V7.38387H52.4929V11.4879H58.8289V14.4399H52.4929V18.6159Z" fill="white"/>
<path d="M70.0421 21.8799C65.0261 21.8799 61.6181 18.2319 61.6181 13.0239C61.6181 7.79187 65.0261 4.11987 70.0421 4.11987C75.0581 4.11987 78.4421 7.79187 78.4421 13.0239C78.4421 18.2319 75.0581 21.8799 70.0421 21.8799ZM70.0421 18.6399C73.0421 18.6399 74.7701 16.4559 74.7701 13.0239C74.7701 9.56787 73.0421 7.35987 70.0421 7.35987C67.0181 7.35987 65.2661 9.56787 65.2661 13.0239C65.2661 16.4799 67.0181 18.6399 70.0421 18.6399Z" fill="white"/>
<path d="M80.3391 12.9999H87.9951V16.0479H80.3391V12.9999Z" fill="white"/>
<path d="M90.2302 21.6399V4.35987H98.0062C101.414 4.35987 103.958 6.51987 103.958 9.99987C103.958 12.6879 102.59 14.7279 100.454 15.3759L103.646 21.6399H99.7822L96.9022 15.8319H93.6382V21.6399H90.2302ZM93.6382 12.9279H97.4542C99.3502 12.9279 100.358 11.9199 100.358 10.1199C100.358 8.31987 99.3502 7.38387 97.4542 7.38387H93.6382V12.9279Z" fill="white"/>
<path d="M113.696 21.8799C108.68 21.8799 105.272 18.2319 105.272 13.0239C105.272 7.79187 108.68 4.11987 113.696 4.11987C118.712 4.11987 122.096 7.79187 122.096 13.0239C122.096 18.2319 118.712 21.8799 113.696 21.8799ZM113.696 18.6399C116.696 18.6399 118.424 16.4559 118.424 13.0239C118.424 9.56787 116.696 7.35987 113.696 7.35987C110.672 7.35987 108.92 9.56787 108.92 13.0239C108.92 16.4799 110.672 18.6399 113.696 18.6399Z" fill="white"/>
<path d="M127.53 18.4959H135.402V21.6399H124.098V4.35987H127.53V18.4959Z" fill="white"/>
<path d="M143.908 21.8799C138.892 21.8799 135.484 18.2319 135.484 13.0239C135.484 7.79187 138.892 4.11987 143.908 4.11987C148.924 4.11987 152.308 7.79187 152.308 13.0239C152.308 18.2319 148.924 21.8799 143.908 21.8799ZM143.908 18.6399C146.908 18.6399 148.636 16.4559 148.636 13.0239C148.636 9.56787 146.908 7.35987 143.908 7.35987C140.884 7.35987 139.132 9.56787 139.132 13.0239C139.132 16.4799 140.884 18.6399 143.908 18.6399Z" fill="white"/>
<path d="M154.31 21.6399V4.35987H160.622C166.022 4.35987 169.31 7.91187 169.31 12.9999C169.31 18.1599 166.022 21.6399 160.622 21.6399H154.31ZM157.742 18.6159H160.43C163.694 18.6159 165.71 16.4319 165.71 12.9039C165.71 9.37587 163.694 7.38387 160.43 7.38387H157.742V18.6159Z" fill="white"/>
<path d="M174.723 18.6159H183.363V21.6399H171.291V4.35987H183.075V7.38387H174.723V11.4879H181.059V14.4399H174.723V18.6159Z" fill="white"/>
<path d="M199.888 21.6399H195.88L191.872 15.2079L187.984 21.6399H184.072L189.352 12.9039L184.072 4.35987H188.08L191.896 10.7919L195.808 4.35987H199.696L194.392 12.9279L199.888 21.6399Z" fill="white"/>
</g>
</svg>
