<svg width="180" height="42" viewBox="0 0 180 42" fill="none" xmlns="http://www.w3.org/2000/svg">
<path d="M31.2507 37.3509C31.4691 37.5825 31.4236 37.9558 31.1508 38.1199C28.0592 39.9788 24.4396 41.0494 20.5693 41.0494C18.2114 41.0494 15.9466 40.651 13.8372 39.9203C13.5411 39.8177 13.4176 39.4702 13.5742 39.1988L19.9121 28.2215C19.9747 28.1131 20.0916 28.0514 20.2168 28.0514C20.8009 28.0514 21.3685 27.9795 21.912 27.8471C22.0972 27.802 22.2941 27.8544 22.4249 27.993L31.2507 37.3509ZM13.8422 24.9132C14.0601 24.8437 14.296 24.9293 14.4312 25.1137C15.01 25.9039 15.7461 26.5713 16.5942 27.0691C16.8483 27.2183 16.9491 27.5435 16.8017 27.7987L10.8785 38.0575C10.7399 38.2976 10.4342 38.3829 10.195 38.2429C6.63474 36.159 3.7574 33.0361 1.97875 29.2895C1.84913 29.0165 1.99424 28.6949 2.28217 28.603L13.8422 24.9132ZM40.0359 24.8766C40.3603 24.8766 40.6019 25.1765 40.5231 25.4912C39.5201 29.4967 37.3418 33.0356 34.3772 35.7228C34.1755 35.9056 33.8654 35.8894 33.6786 35.6914L25.2267 26.7317C25.0269 26.52 25.0467 26.1853 25.2537 25.9806C25.5297 25.7077 25.7835 25.4125 26.0127 25.0981C26.1123 24.9614 26.2694 24.8766 26.4385 24.8766H40.0359ZM12.5448 19.7106C12.8585 19.7106 13.096 19.992 13.0705 20.3047C13.055 20.4946 13.0469 20.6866 13.0469 20.8805C13.0469 21.1396 13.0614 21.3956 13.0887 21.6477C13.1161 21.8993 12.9703 22.1418 12.7292 22.2187L1.26283 25.8794C0.988497 25.9669 0.695635 25.8096 0.625131 25.5304C0.217029 23.9142 1.81977e-05 22.222 0 20.4791C1.75252e-06 20.3861 0.000819897 20.2932 0.00230654 20.2005C0.00669128 19.927 0.2322 19.7106 0.505754 19.7106H12.5448ZM14.3925 16.1726C14.5229 16.3006 14.5343 16.5059 14.4265 16.6533C14.3576 16.7476 14.2487 16.8053 14.132 16.8053H0.935494C0.618562 16.8053 0.37851 16.5183 0.443992 16.2082C1.13992 12.9126 2.62481 9.9079 4.69188 7.40118C4.87825 7.17517 5.21749 7.16219 5.42649 7.36744L14.3925 16.1726ZM18.5046 13.5227C18.5025 13.755 18.3425 13.9545 18.1202 14.0224C17.8061 14.1184 17.5011 14.2355 17.2069 14.3718C17.0061 14.4649 16.7668 14.4314 16.6089 14.2764L7.48968 5.3211C7.2779 5.11313 7.28819 4.76828 7.5175 4.57983C10.4615 2.1605 14.0896 0.544973 18.0675 0.0627414C18.3667 0.0264696 18.6255 0.264595 18.6228 0.565978L18.5046 13.5227Z" fill="white"/>
<path d="M32.1998 10.2441H39.7472V19H37.2032L36.9487 17.1555C35.9099 18.47 34.2774 19.212 32.1786 19.212C28.108 19.212 25.1187 16.3499 25.1187 11.6645C25.1187 6.85194 28.1292 3.52342 32.7086 3.52342C36.3551 3.52342 39.0052 5.51629 39.6624 8.65401H36.2915C35.6979 7.02155 34.2986 6.30072 32.6662 6.30072C30.0161 6.30072 28.2776 8.20879 28.2776 11.3889C28.2776 14.5478 29.9949 16.4559 32.5814 16.4559C34.2986 16.4559 36.5671 15.5443 36.7155 12.9578L36.9063 12.979V12.7246H32.1998V10.2441ZM45.4122 16.3287H53.0445V19H42.3805V3.73543H52.79V6.40673H45.4122V10.0321H51.0092V12.6398H45.4122V16.3287ZM61.3386 19.212C56.9076 19.212 53.8971 15.9895 53.8971 11.3889C53.8971 6.76714 56.9076 3.52342 61.3386 3.52342C65.7696 3.52342 68.7589 6.76714 68.7589 11.3889C68.7589 15.9895 65.7696 19.212 61.3386 19.212ZM61.3386 16.3499C63.9887 16.3499 65.5152 14.4206 65.5152 11.3889C65.5152 8.336 63.9887 6.38553 61.3386 6.38553C58.6673 6.38553 57.1196 8.336 57.1196 11.3889C57.1196 14.4418 58.6673 16.3499 61.3386 16.3499ZM70.8586 11.3677H77.6216V14.0602H70.8586V11.3677ZM80.0201 19V3.73543H86.8892C89.8997 3.73543 92.147 5.6435 92.147 8.71761C92.147 11.0921 90.9386 12.8942 89.0517 13.4666L91.8714 19H88.4581L85.914 13.8694H83.0307V19H80.0201ZM83.0307 11.3041H86.4016C88.0764 11.3041 88.9669 10.4137 88.9669 8.82362C88.9669 7.23356 88.0764 6.40673 86.4016 6.40673H83.0307V11.3041ZM101.173 19.212C96.7419 19.212 93.7314 15.9895 93.7314 11.3889C93.7314 6.76714 96.7419 3.52342 101.173 3.52342C105.604 3.52342 108.593 6.76714 108.593 11.3889C108.593 15.9895 105.604 19.212 101.173 19.212ZM101.173 16.3499C103.823 16.3499 105.349 14.4206 105.349 11.3889C105.349 8.336 103.823 6.38553 101.173 6.38553C98.5016 6.38553 96.954 8.336 96.954 11.3889C96.954 14.4418 98.5016 16.3499 101.173 16.3499ZM113.818 16.2227H120.772V19H110.786V3.73543H113.818V16.2227ZM128.709 19.212C124.278 19.212 121.268 15.9895 121.268 11.3889C121.268 6.76714 124.278 3.52342 128.709 3.52342C133.14 3.52342 136.129 6.76714 136.129 11.3889C136.129 15.9895 133.14 19.212 128.709 19.212ZM128.709 16.3499C131.359 16.3499 132.886 14.4206 132.886 11.3889C132.886 8.336 131.359 6.38553 128.709 6.38553C126.038 6.38553 124.49 8.336 124.49 11.3889C124.49 14.4418 126.038 16.3499 128.709 16.3499ZM138.322 19V3.73543H143.898C148.668 3.73543 151.573 6.87314 151.573 11.3677C151.573 15.9259 148.668 19 143.898 19H138.322ZM141.354 16.3287H143.729C146.612 16.3287 148.393 14.3994 148.393 11.2829C148.393 8.16639 146.612 6.40673 143.729 6.40673H141.354V16.3287ZM156.778 16.3287H164.411V19H153.747V3.73543H164.156V6.40673H156.778V10.0321H162.375V12.6398H156.778V16.3287ZM179.432 19H175.892L172.351 13.3182L168.917 19H165.461L170.125 11.2829L165.461 3.73543H169.002L172.372 9.41724L175.828 3.73543H179.263L174.577 11.3041L179.432 19Z" fill="white"/>
</svg>
