<svg width="53" height="73" viewBox="0 0 53 73" fill="none" xmlns="http://www.w3.org/2000/svg">
<path d="M53 72.7174L47.2702 62.6923L41.4531 72.667L53 72.7174ZM1 1.5L0.989012 2.49994C6.54587 2.561 14.9044 4.30972 21.8452 9.32847C28.7363 14.3112 34.2899 22.5546 34.2899 35.7899H35.2899H36.2899C36.2899 21.8947 30.4135 13.0559 23.0171 7.70777C15.6705 2.3956 6.88409 0.5646 1.01099 0.50006L1 1.5ZM35.2899 35.7899H34.2899C34.2899 53.4166 39.2249 63.5643 44.5173 68.889L45.2266 68.1841L45.9358 67.4791C41.1183 62.6322 36.2899 53.0538 36.2899 35.7899H35.2899Z" fill="white"/>
</svg>
