<svg width="53" height="73" viewBox="0 0 53 73" fill="none" xmlns="http://www.w3.org/2000/svg">
<path d="M53 -0.000106812L47.2702 10.025L41.4531 0.0502472L53 -0.000106812ZM1 71.2173L0.989012 70.2173C6.54587 70.1563 14.9044 68.4076 21.8452 63.3888C28.7363 58.406 34.2899 50.1627 34.2899 36.9274H35.2899H36.2899C36.2899 50.8226 30.4135 59.6614 23.0171 65.0095C15.6705 70.3217 6.88409 72.1527 1.01099 72.2172L1 71.2173ZM35.2899 36.9274H34.2899C34.2899 19.3007 39.2249 9.15297 44.5173 3.82825L45.2266 4.5332L45.9358 5.23815C41.1183 10.0851 36.2899 19.6635 36.2899 36.9274H35.2899Z" fill="white"/>
</svg>
