<svg width="133" height="128" viewBox="0 0 133 128" fill="none" xmlns="http://www.w3.org/2000/svg">
<path d="M70.325 101.6C98.325 101.6 121.025 78.9 121.025 50.8C121.025 22.7 98.225 0 70.325 0C42.325 0 19.625 22.7 19.625 50.8C19.625 78.9 42.325 101.6 70.325 101.6Z" fill="#F2FBFF"/>
<path d="M124.17 83.577C126.435 83.577 128.27 81.7413 128.27 79.477C128.27 77.2126 126.435 75.377 124.17 75.377C121.906 75.377 120.07 77.2126 120.07 79.477C120.07 81.7413 121.906 83.577 124.17 83.577Z" fill="#EAEEF9"/>
<path d="M130.175 67.5771C131.721 67.5771 132.975 66.3234 132.975 64.7771C132.975 63.2307 131.721 61.9771 130.175 61.9771C128.629 61.9771 127.375 63.2307 127.375 64.7771C127.375 66.3234 128.629 67.5771 130.175 67.5771Z" fill="#EAEEF9"/>
<path d="M22.3234 17.3998C23.8698 17.3998 25.1234 16.1462 25.1234 14.5998C25.1234 13.0534 23.8698 11.7998 22.3234 11.7998C20.777 11.7998 19.5234 13.0534 19.5234 14.5998C19.5234 16.1462 20.777 17.3998 22.3234 17.3998Z" fill="#EAEEF9"/>
<path d="M5.22344 71.4C8.09532 71.4 10.4234 69.0719 10.4234 66.2C10.4234 63.3281 8.09532 61 5.22344 61C2.35156 61 0.0234375 63.3281 0.0234375 66.2C0.0234375 69.0719 2.35156 71.4 5.22344 71.4Z" fill="#EAEEF9"/>
<path d="M108.132 51.9994L110.834 51.1849C111.03 51.1281 111.03 50.8439 110.834 50.7871L108.132 49.9726C108.063 49.9536 108.012 49.9031 107.993 49.8337L107.179 47.1375C107.122 46.9418 106.838 46.9418 106.781 47.1375L105.966 49.8337C105.947 49.9031 105.897 49.9536 105.827 49.9726L103.131 50.7871C102.935 50.8439 102.935 51.1281 103.131 51.1849L105.834 51.9994C105.903 52.0183 105.954 52.0689 105.973 52.1383L106.787 54.8408C106.844 55.0365 107.128 55.0365 107.185 54.8408L107.999 52.1383C108.012 52.0689 108.063 52.0183 108.132 51.9994Z" fill="#ADB6C8"/>
<path d="M92.132 22.9996L94.8344 22.1852C95.0302 22.1283 95.0302 21.8442 94.8344 21.7874L92.132 20.9729C92.0625 20.954 92.012 20.9035 91.9931 20.834L91.1785 18.138C91.1217 17.9423 90.8376 17.9423 90.7807 18.138L89.9662 20.834C89.9473 20.9035 89.8968 20.954 89.8273 20.9729L87.1312 21.7874C86.9354 21.8442 86.9354 22.1283 87.1312 22.1852L89.8336 22.9996C89.9031 23.0186 89.9536 23.0691 89.9725 23.1385L90.7871 25.8409C90.8439 26.0366 91.128 26.0366 91.1849 25.8409L91.9994 23.1385C92.012 23.0691 92.0625 23.0186 92.132 22.9996Z" fill="#ADB6C8"/>
<path d="M51.4885 26.3736L53.8532 25.6609C54.0244 25.6112 54.0244 25.3626 53.8532 25.3128L51.4885 24.6002C51.4277 24.5836 51.3835 24.5394 51.367 24.4786L50.6543 22.1197C50.6045 21.9484 50.3559 21.9484 50.3062 22.1197L49.5935 24.4786C49.5769 24.5394 49.5327 24.5836 49.4719 24.6002L47.1128 25.3128C46.9416 25.3626 46.9416 25.6112 47.1128 25.6609L49.4775 26.3736C49.5382 26.3901 49.5824 26.4343 49.599 26.4951L50.3117 28.8596C50.3614 29.0309 50.6101 29.0309 50.6598 28.8596L51.3725 26.4951C51.3835 26.4343 51.4277 26.3901 51.4885 26.3736Z" fill="#ADB6C8"/>
<path d="M34.4885 69.8021L36.8532 68.9876C37.0244 68.9308 37.0244 68.6467 36.8532 68.5898L34.4885 67.7753C34.4277 67.7564 34.3835 67.7058 34.367 67.6364L33.6543 64.9403C33.6045 64.7445 33.3559 64.7445 33.3062 64.9403L32.5935 67.6364C32.5769 67.7058 32.5327 67.7564 32.4719 67.7753L30.1128 68.5898C29.9416 68.6467 29.9416 68.9308 30.1128 68.9876L32.4775 69.8021C32.5382 69.8211 32.5824 69.8716 32.599 69.9411L33.3117 72.6435C33.3614 72.8392 33.6101 72.8392 33.6598 72.6435L34.3725 69.9411C34.3835 69.8716 34.4277 69.8211 34.4885 69.8021Z" fill="#ADB6C8"/>
<path d="M30.7094 39.0052L32.3985 38.4961C32.5208 38.4606 32.5208 38.2831 32.3985 38.2475L30.7094 37.7385C30.666 37.7267 30.6345 37.6951 30.6226 37.6517L30.1135 35.9667C30.078 35.8444 29.9004 35.8444 29.8649 35.9667L29.3558 37.6517C29.344 37.6951 29.3124 37.7267 29.269 37.7385L27.5839 38.2475C27.4616 38.2831 27.4616 38.4606 27.5839 38.4961L29.273 39.0052C29.3164 39.017 29.3479 39.0486 29.3598 39.092L29.8689 40.7809C29.9044 40.9032 30.082 40.9032 30.1175 40.7809L30.6266 39.092C30.6345 39.0486 30.666 39.017 30.7094 39.0052Z" fill="#ADB6C8"/>
<path d="M48.7094 55.7112L50.3985 55.2022C50.5208 55.1667 50.5208 54.9891 50.3985 54.9536L48.7094 54.4446C48.666 54.4327 48.6345 54.4012 48.6226 54.3577L48.1135 52.6728C48.078 52.5505 47.9004 52.5505 47.8649 52.6728L47.3558 54.3577C47.344 54.4012 47.3124 54.4327 47.269 54.4446L45.5839 54.9536C45.4616 54.9891 45.4616 55.1667 45.5839 55.2022L47.273 55.7112C47.3164 55.7231 47.3479 55.7546 47.3598 55.798L47.8689 57.4869C47.9044 57.6093 48.082 57.6093 48.1175 57.4869L48.6266 55.798C48.6345 55.7546 48.666 55.7231 48.7094 55.7112Z" fill="#ADB6C8"/>
<path d="M63.0297 8.11993L64.7188 7.61089C64.8411 7.57537 64.8411 7.3978 64.7188 7.36229L63.0297 6.85325C62.9863 6.84142 62.9548 6.80985 62.9429 6.76644L62.4339 5.08149C62.3983 4.95916 62.2207 4.95916 62.1852 5.08149L61.6762 6.76644C61.6643 6.80985 61.6327 6.84142 61.5893 6.85325L59.9043 7.36229C59.7819 7.3978 59.7819 7.57537 59.9043 7.61089L61.5933 8.11993C61.6367 8.13176 61.6683 8.16333 61.6801 8.20674L62.1892 9.89563C62.2247 10.018 62.4023 10.018 62.4378 9.89563L62.9469 8.20674C62.9548 8.16333 62.9863 8.13176 63.0297 8.11993Z" fill="#ADB6C8"/>
<path d="M103.053 80.4705L104.742 79.9615C104.865 79.926 104.865 79.7484 104.742 79.7129L103.053 79.2038C103.01 79.192 102.978 79.1604 102.966 79.117L102.457 77.4321C102.422 77.3098 102.244 77.3098 102.209 77.4321L101.7 79.117C101.688 79.1604 101.656 79.192 101.613 79.2038L99.9277 79.7129C99.8054 79.7484 99.8054 79.926 99.9277 79.9615L101.617 80.4705C101.66 80.4823 101.692 80.5139 101.704 80.5573L102.213 82.2462C102.248 82.3685 102.426 82.3685 102.461 82.2462L102.97 80.5573C102.978 80.5139 103.01 80.4823 103.053 80.4705Z" fill="#ADB6C8"/>
<path d="M55.3889 58.5508C51.1362 61.6492 45.5469 66.1449 45.5469 70.0939C45.5469 72.4067 45.5469 75.6991 45.5469 78.0302C45.5469 78.9719 46.8958 79.5413 47.6744 79.0115C49.726 77.6152 53.2732 76.0068 58.3658 76.473C66.9928 77.2628 56.847 62.8035 56.847 62.8035L55.3889 58.5508Z" fill="url(#paint0_linear_899_21713)"/>
<path d="M86.3128 58.5508C90.5655 61.7099 96.1548 66.1449 96.1548 70.0939C96.1548 72.4067 96.1548 75.6991 96.1548 78.0302C96.1548 78.9719 94.8059 79.5413 94.0273 79.0115C91.9756 77.6153 88.4285 76.0068 83.3359 76.473C74.7089 77.2628 84.8547 62.8035 84.8547 62.8035L86.3128 58.5508Z" fill="url(#paint1_linear_899_21713)"/>
<g filter="url(#filter0_d_899_21713)">
<path d="M70.818 15.0513C62.7986 20.7621 53.1995 34.7961 54.9614 52.6575C56.6625 70.5189 58.1813 79.3281 61.462 81.4545C64.8034 83.5809 68.0841 84.0669 70.818 84.0669C73.5519 84.0669 76.8325 83.5809 80.174 81.4545C83.5154 79.3281 84.9735 70.5189 86.6746 52.6575C88.3756 34.7961 78.7766 20.7621 70.818 15.0513Z" fill="url(#paint2_linear_899_21713)"/>
</g>
<g filter="url(#filter1_d_899_21713)">
<path d="M76.8986 86.5579H64.748C63.7759 86.5579 63.0469 85.7681 63.0469 84.8568V81.8799H78.6604V84.796C78.5997 85.7681 77.8099 86.5579 76.8986 86.5579Z" fill="url(#paint3_linear_899_21713)"/>
</g>
<path d="M71.6698 57.5786H69.9688V79.9965H71.6698V57.5786Z" fill="url(#paint4_linear_899_21713)"/>
<path d="M70.8193 45.367C74.141 45.367 76.8338 42.6742 76.8338 39.3525C76.8338 36.0307 74.141 33.3379 70.8193 33.3379C67.4975 33.3379 64.8047 36.0307 64.8047 39.3525C64.8047 42.6742 67.4975 45.367 70.8193 45.367Z" stroke="#3367D6" stroke-width="4" stroke-miterlimit="10"/>
<path d="M79.1462 98.1615C79.1462 103.082 75.1972 127.748 70.2762 127.748C65.3552 127.748 61.4062 103.082 61.4062 98.1615C61.4062 93.2405 65.3552 89.2915 70.2762 89.2915C75.1972 89.2915 79.1462 93.3012 79.1462 98.1615Z" fill="#EAEEF9"/>
<path d="M70.2745 116.388C68.5127 112.621 66.5078 102.172 66.5078 98.8302C66.5078 96.7646 68.2089 95.0635 70.2745 95.0635C72.3401 95.0635 74.0412 96.7646 74.0412 98.8302C74.0412 102.172 72.0364 112.56 70.2745 116.388Z" fill="white"/>
<defs>
<filter id="filter0_d_899_21713" x="32.75" y="4.05127" width="76.125" height="113.016" filterUnits="userSpaceOnUse" colorInterpolationFilters="sRGB">
<feFlood floodOpacity="0" result="BackgroundImageFix"/>
<feColorMatrix in="SourceAlpha" type="matrix" values="0 0 0 0 0 0 0 0 0 0 0 0 0 0 0 0 0 0 127 0" result="hardAlpha"/>
<feOffset dy="11"/>
<feGaussianBlur stdDeviation="11"/>
<feColorMatrix type="matrix" values="0 0 0 0 0.397708 0 0 0 0 0.47749 0 0 0 0 0.575 0 0 0 0.27 0"/>
<feBlend mode="normal" in2="BackgroundImageFix" result="effect1_dropShadow_899_21713"/>
<feBlend mode="normal" in="SourceGraphic" in2="effect1_dropShadow_899_21713" result="shape"/>
</filter>
<filter id="filter1_d_899_21713" x="41.0469" y="70.8799" width="59.6172" height="48.6782" filterUnits="userSpaceOnUse" colorInterpolationFilters="sRGB">
<feFlood floodOpacity="0" result="BackgroundImageFix"/>
<feColorMatrix in="SourceAlpha" type="matrix" values="0 0 0 0 0 0 0 0 0 0 0 0 0 0 0 0 0 0 127 0" result="hardAlpha"/>
<feOffset dy="11"/>
<feGaussianBlur stdDeviation="11"/>
<feColorMatrix type="matrix" values="0 0 0 0 0.397708 0 0 0 0 0.47749 0 0 0 0 0.575 0 0 0 0.27 0"/>
<feBlend mode="normal" in2="BackgroundImageFix" result="effect1_dropShadow_899_21713"/>
<feBlend mode="normal" in="SourceGraphic" in2="effect1_dropShadow_899_21713" result="shape"/>
</filter>
<linearGradient id="paint0_linear_899_21713" x1="53.6959" y1="59.3253" x2="53.6959" y2="71.8401" gradientUnits="userSpaceOnUse">
<stop stopColor="#2A56C6"/>
<stop offset="1" stopColor="#1A73E8"/>
</linearGradient>
<linearGradient id="paint1_linear_899_21713" x1="88.0084" y1="59.3253" x2="88.0084" y2="71.8401" gradientUnits="userSpaceOnUse">
<stop stopColor="#2A56C6"/>
<stop offset="1" stopColor="#1A73E8"/>
</linearGradient>
<linearGradient id="paint2_linear_899_21713" x1="70.8008" y1="13.4549" x2="70.8008" y2="84.8109" gradientUnits="userSpaceOnUse">
<stop stopColor="#FDFEFF"/>
<stop offset="0.9964" stopColor="#ECF0F5"/>
</linearGradient>
<linearGradient id="paint3_linear_899_21713" x1="70.8486" y1="81.7717" x2="70.8486" y2="86.6083" gradientUnits="userSpaceOnUse">
<stop stopColor="#FDFEFF"/>
<stop offset="0.9964" stopColor="#ECF0F5"/>
</linearGradient>
<linearGradient id="paint4_linear_899_21713" x1="70.8194" y1="58.3574" x2="70.8194" y2="70.9403" gradientUnits="userSpaceOnUse">
<stop stopColor="#B0BACC"/>
<stop offset="1" stopColor="#969EAE"/>
</linearGradient>
</defs>
</svg>
